<svg xmlns="http://www.w3.org/2000/svg" viewBox="0 0 24.99 15.623">
  <path id="Icon_simple-behance" data-name="Icon simple-behance" d="M7.227,6.754a9.289,9.289,0,0,1,2,.2,4.5,4.5,0,0,1,1.547.635,2.928,2.928,0,0,1,1,1.167,4.163,4.163,0,0,1,.354,1.8,3.39,3.39,0,0,1-.528,1.938,3.816,3.816,0,0,1-1.565,1.271,3.671,3.671,0,0,1,2.106,1.427,4.275,4.275,0,0,1,.693,2.458,4.306,4.306,0,0,1-.427,2.01A3.855,3.855,0,0,1,11.2,21.065a5.3,5.3,0,0,1-1.74.8,7.62,7.62,0,0,1-1.99.265H0V6.762H7.227ZM17.646,19.423a2.718,2.718,0,0,0,1.973.67,2.72,2.72,0,0,0,1.594-.466,1.918,1.918,0,0,0,.813-.979h2.7a5.071,5.071,0,0,1-1.979,2.865,5.714,5.714,0,0,1-3.208.865,6.384,6.384,0,0,1-2.367-.417,5.154,5.154,0,0,1-1.792-1.187,5.313,5.313,0,0,1-1.122-1.844,6.835,6.835,0,0,1-.389-2.365,6.335,6.335,0,0,1,.42-2.323,5.407,5.407,0,0,1,2.975-3.108,5.582,5.582,0,0,1,2.313-.451,5.251,5.251,0,0,1,2.479.545,5,5,0,0,1,1.729,1.458,5.8,5.8,0,0,1,.979,2.1,8.4,8.4,0,0,1,.219,2.479h-8.01a3.157,3.157,0,0,0,.74,2.151l-.083.031Zm-10.667.052a4.386,4.386,0,0,0,.944-.1,2.416,2.416,0,0,0,.795-.312,1.544,1.544,0,0,0,.542-.607,2.135,2.135,0,0,0,.2-1,2.022,2.022,0,0,0-.667-1.687,2.869,2.869,0,0,0-1.76-.5H3.375V19.49h3.6v-.031ZM21.153,13.59a2.293,2.293,0,0,0-1.726-.617,2.583,2.583,0,0,0-1.215.248,2.244,2.244,0,0,0-.771.615,2.169,2.169,0,0,0-.408.781,3.652,3.652,0,0,0-.141.74h4.96a2.976,2.976,0,0,0-.708-1.76v.01ZM6.792,12.949a2.426,2.426,0,0,0,1.484-.429,1.6,1.6,0,0,0,.577-1.394,1.963,1.963,0,0,0-.187-.881,1.522,1.522,0,0,0-.521-.533,2.206,2.206,0,0,0-.75-.268,4.61,4.61,0,0,0-.875-.077H3.365V12.95H6.792Zm9.477-5.165h6.217V9.3H16.269V7.783Z" transform="translate(0 -6.754)"/>
</svg>
