<?xml version="1.0" encoding="utf-8"?>
<!-- Generator: Adobe Illustrator 25.4.1, SVG Export Plug-In . SVG Version: 6.00 Build 0)  -->
<svg version="1.1" id="Layer_1" xmlns="http://www.w3.org/2000/svg" xmlns:xlink="http://www.w3.org/1999/xlink" x="0px" y="0px"
	 viewBox="0 0 4000 4000" style="enable-background:new 0 0 4000 4000;" xml:space="preserve">
<g>
	<polygon points="1903.2,1992.2 1903.5,1992.2 1911.9,2040 1935.5,2040 1957.5,1961.5 1933.6,1961.5 1923.8,2010.6 1923.6,2010.6 
		1914.3,1961.5 1893,1961.5 1883.6,2010 1883.3,2010 1873.8,1961.5 1850,1961.5 1871.3,2040 1895,2040 	"/>
	<rect width="4000" height="0"/>
	<polygon points="2096.7,1992.2 2097,1992.2 2105.4,2040 2129,2040 2151,1961.5 2127.1,1961.5 2117.3,2010.6 2117.1,2010.6 
		2107.8,1961.5 2086.5,1961.5 2077,2010 2076.8,2010 2067.2,1961.5 2043.5,1961.5 2064.8,2040 2088.5,2040 	"/>
</g>
</svg>
