<svg xmlns="http://www.w3.org/2000/svg" viewBox="0 0 21.887 21.882">
  <path id="Icon_awesome-instagram" data-name="Icon awesome-instagram" d="M10.941,7.569a5.61,5.61,0,1,0,5.61,5.61A5.6,5.6,0,0,0,10.941,7.569Zm0,9.258a3.647,3.647,0,1,1,3.647-3.647A3.654,3.654,0,0,1,10.941,16.826Zm7.148-9.487A1.309,1.309,0,1,1,16.781,6.03,1.306,1.306,0,0,1,18.089,7.339Zm3.716,1.328a6.476,6.476,0,0,0-1.768-4.585,6.518,6.518,0,0,0-4.585-1.768c-1.807-.1-7.222-.1-9.028,0A6.509,6.509,0,0,0,1.839,4.077,6.5,6.5,0,0,0,.072,8.662c-.1,1.807-.1,7.222,0,9.028a6.476,6.476,0,0,0,1.768,4.585,6.527,6.527,0,0,0,4.585,1.768c1.807.1,7.222.1,9.028,0a6.476,6.476,0,0,0,4.585-1.768,6.518,6.518,0,0,0,1.768-4.585c.1-1.807.1-7.217,0-9.023ZM19.471,19.629a3.693,3.693,0,0,1-2.08,2.08c-1.44.571-4.858.439-6.45.439s-5.015.127-6.45-.439a3.693,3.693,0,0,1-2.08-2.08c-.571-1.44-.439-4.858-.439-6.45s-.127-5.015.439-6.45a3.693,3.693,0,0,1,2.08-2.08c1.44-.571,4.858-.439,6.45-.439s5.015-.127,6.45.439a3.693,3.693,0,0,1,2.08,2.08c.571,1.44.439,4.858.439,6.45S20.042,18.194,19.471,19.629Z" transform="translate(0.005 -2.238)"/>
</svg>
