<svg xmlns="http://www.w3.org/2000/svg" viewBox="0 0 242.1 242.1" xmlns:v="https://vecta.io/nano"><path d="M239.2 121c0 65.8-53.4 119.2-119.2 119.2C54.1 240.3.8 186.9.8 121 .8 55.2 54.1 1.8 120 1.8c65.8 0 119.2 53.4 119.2 119.2" fill="#e3152d"/><path d="M121 3.6C56.3 3.6 3.6 56.3 3.6 121S56.3 238.4 121 238.4 238.5 185.8 238.5 121C238.5 56.3 185.8 3.6 121 3.6m0 238.5c-66.7 0-121-54.3-121-121S54.3 0 121 0s121 54.3 121 121-54.2 121.1-121 121.1m54.8-173.8c-15.7-14.8-35.5-20.3-56.4-21-23.4-.8-46.9-.3-70.4-.1-1.5 0-2.9 1.3-4.4 2.1 1.4.8 2.8 2.2 4.3 2.4 11.1 1.9 13.8 5.1 13.8 16.4v107.4c0 10.9-2.8 14.1-13.7 15.9-1.6.3-2.9 1.9-4.4 2.9 1.6.6 3.1 1.7 4.7 1.7 11.7.1 23.5-.2 35.2.2 5.1.2 6.3-1.7 6.2-6.4v-7.6.6-7.2-50-50-.5c-.1-11.1-3-14.2-13.9-16.1-1.5-.3-2.9-1.6-4.3-2.4 1.5-.7 2.9-2.1 4.4-2.1l18.8-.1h.4c5 0 10.1-.3 15.1 0 13 .9 26 1.6 37.4 9.3 12.6 8.5 15.5 27 6 39-6.4 8.1-15.2 11.7-25.1 13.3-1.5.2-2.7 1.7-4.1 2.7 1.3.8 2.5 1.9 3.9 2.2 5.1 1.2 10.4 1.6 15.3 3.2 12.5 4.1 22.8 10.8 24.6 25.2 1.7 13.9-4 24.6-15.8 32.1-9.5 6-20.1 8.6-31.1 9.9-1.4.2-2.6 1.9-3.8 3 1.3.6 2.8 2 4 1.8 8.6-1.2 17.7-1.4 25.7-4.4 26.2-9.7 42.8-28.7 47.9-56.4 4.7-25.6-.9-48.7-20.3-67" fill="#fff"/></svg>