<svg xmlns="http://www.w3.org/2000/svg" viewBox="0 0 20.25 17.407">
  <path id="twitter" d="M21.79,6.048a7.947,7.947,0,0,1-2.381.707,4.369,4.369,0,0,0,1.82-2.437A8.1,8.1,0,0,1,18.6,5.393,3.989,3.989,0,0,0,15.537,4,4.274,4.274,0,0,0,11.4,8.393a4.818,4.818,0,0,0,.106,1A11.6,11.6,0,0,1,2.953,4.809a4.539,4.539,0,0,0-.561,2.2,4.391,4.391,0,0,0,1.849,3.645,3.931,3.931,0,0,1-1.888-.512v.031a4.342,4.342,0,0,0,3.33,4.311,3.856,3.856,0,0,1-1.868.072,4.181,4.181,0,0,0,3.872,3.051A8,8,0,0,1,1.54,19.431a11.3,11.3,0,0,0,6.369,1.976c7.628,0,11.819-6.7,11.819-12.5,0-.195,0-.379-.01-.573A8.582,8.582,0,0,0,21.79,6.048Z" transform="translate(-1.54 -4)"/>
</svg>
